<svg width="16" height="16" viewBox="0 0 16 16" fill="none" xmlns="http://www.w3.org/2000/svg">
<path d="M5.33203 1.33398V3.33398M10.6654 1.33398V3.33398M2.33203 6.06065H13.6654M14.6654 12.6673C14.6654 13.1673 14.5254 13.6406 14.2787 14.0406C14.0437 14.4356 13.7098 14.7626 13.3101 14.9894C12.9103 15.2162 12.4583 15.3349 11.9987 15.334C11.3254 15.334 10.712 15.0873 10.2454 14.6673C10.0387 14.494 9.8587 14.2806 9.7187 14.0406C9.46492 13.6276 9.33105 13.1521 9.33203 12.6673C9.33203 11.194 10.5254 10.0007 11.9987 10.0007C12.7987 10.0007 13.512 10.354 13.9987 10.9073C14.4274 11.3935 14.6644 12.0191 14.6654 12.6673Z" stroke="#4F9B0E" stroke-miterlimit="10" stroke-linecap="round" stroke-linejoin="round"/>
<path d="M10.9609 12.667L11.6209 13.327L13.0409 12.0137" stroke="#4F9B0E" stroke-linecap="round" stroke-linejoin="round"/>
<path d="M14 5.66732V10.9073C13.5133 10.354 12.8 10.0007 12 10.0007C10.5267 10.0007 9.33333 11.194 9.33333 12.6673C9.33333 13.1673 9.47333 13.6406 9.72 14.0406C9.86 14.2806 10.04 14.494 10.2467 14.6673H5.33333C3 14.6673 2 13.334 2 11.334V5.66732C2 3.66732 3 2.33398 5.33333 2.33398H10.6667C13 2.33398 14 3.66732 14 5.66732Z" stroke="#4F9B0E" stroke-miterlimit="10" stroke-linecap="round" stroke-linejoin="round"/>
<path d="M7.99858 9.13281H8.00525M5.53125 9.13281H5.53792M5.53125 11.1328H5.53792" stroke="#4F9B0E" stroke-width="1.5" stroke-linecap="round" stroke-linejoin="round"/>
</svg>
