<svg width="19" height="20" viewBox="0 0 19 20" fill="none" xmlns="http://www.w3.org/2000/svg">
<path fill-rule="evenodd" clip-rule="evenodd" d="M9.50065 3.33268C6.00285 3.33268 3.16732 6.31745 3.16732 9.99935C3.16732 13.6812 6.00285 16.666 9.50065 16.666C12.9985 16.666 15.834 13.6812 15.834 9.99935C15.834 6.31745 12.9985 3.33268 9.50065 3.33268ZM1.58398 9.99935C1.58398 5.39698 5.1284 1.66602 9.50065 1.66602C13.8729 1.66602 17.4173 5.39698 17.4173 9.99935C17.4173 14.6017 13.8729 18.3327 9.50065 18.3327C5.1284 18.3327 1.58398 14.6017 1.58398 9.99935ZM10.9435 8.48737L8.97871 9.4525L8.06184 11.5206L10.0266 10.5555L10.9435 8.48737ZM12.0494 6.10486C12.7864 5.74284 13.5508 6.54741 13.2068 7.32317L11.2179 11.8095L6.95585 13.9032C6.21887 14.2652 5.45454 13.4606 5.79846 12.6848L7.7874 8.19849L12.0494 6.10486Z" fill="#A9AEB8"/>
</svg>
