<svg width="24" height="24" viewBox="0 0 24 24" fill="none" xmlns="http://www.w3.org/2000/svg">
<path fill-rule="evenodd" clip-rule="evenodd" d="M12 4C7.58172 4 4 7.58172 4 12C4 16.4183 7.58172 20 12 20C16.4183 20 20 16.4183 20 12C20 7.58172 16.4183 4 12 4ZM2 12C2 6.47715 6.47715 2 12 2C17.5228 2 22 6.47715 22 12C22 17.5228 17.5228 22 12 22C6.47715 22 2 17.5228 2 12ZM13.8225 10.1856L11.3407 11.3438L10.1826 13.8256L12.6643 12.6674L13.8225 10.1856ZM15.2195 7.32661C16.1504 6.89219 17.1159 7.85767 16.6815 8.78859L14.1691 14.1722L8.78552 16.6846C7.85459 17.119 6.88912 16.1535 7.32354 15.2226L9.8359 9.83897L15.2195 7.32661Z" fill="#008474"/>
</svg>
