<svg width="20" height="20" viewBox="0 0 20 20" fill="none" xmlns="http://www.w3.org/2000/svg">
<path d="M15.6007 17.2005L16.9571 13.4706C17.0959 13.0887 16.9265 12.6634 16.563 12.4816L10.3585 9.37937C10.1333 9.26677 9.86817 9.26677 9.64297 9.37937L3.43846 12.4816C3.07501 12.6634 2.90553 13.0887 3.04439 13.4706L4.40073 17.2005" stroke="#A9AEB8" stroke-width="1.5" stroke-linejoin="round"/>
<path d="M14.4008 6.00195H5.60078C5.15894 6.00195 4.80078 6.36011 4.80078 6.80195V11.602L9.66554 9.35667C9.87826 9.25851 10.1233 9.25851 10.336 9.35667L15.2008 11.602V6.80195C15.2008 6.36011 14.8426 6.00195 14.4008 6.00195Z" stroke="#A9AEB8" stroke-width="1.5" stroke-linecap="square" stroke-linejoin="round"/>
<path d="M12 6V2.8C12 2.35817 11.6418 2 11.2 2H8.8C8.35816 2 8 2.35817 8 2.8V6" stroke="#A9AEB8" stroke-width="1.5" stroke-linecap="square" stroke-linejoin="round"/>
<path d="M10 13.2012V16.4012" stroke="#A9AEB8" stroke-width="1.5" stroke-linecap="square"/>
<path d="M2 18.0012C3.6 18.0012 3.6 17.2012 4.8 17.2012C6 17.2012 6 18.0012 7.2 18.0012C8.4 18.0012 8.6 17.2012 10 17.2012C11.4 17.2012 11.6 18.0012 12.8 18.0012C14 18.0012 14 17.2012 15.2 17.2012C16.4 17.2012 16.4 18.0012 18 18.0012" stroke="#A9AEB8" stroke-width="1.5" stroke-linecap="square" stroke-linejoin="round"/>
</svg>
