<svg width="16" height="16" viewBox="0 0 16 16" fill="none" xmlns="http://www.w3.org/2000/svg">
<path d="M6.01885 14.4598L7.57219 13.1532C7.80552 12.9532 8.19219 12.9532 8.42552 13.1532L9.97885 14.4598C10.3389 14.6398 10.7789 14.4598 10.9122 14.0732L11.2055 13.1865C11.2789 12.9732 11.2055 12.6598 11.0455 12.4998L9.53219 10.9798C9.41885 10.8732 9.33219 10.6598 9.33219 10.5065V8.60651C9.33219 8.32651 9.53885 8.19318 9.79885 8.29984L13.0722 9.71318C13.5855 9.93318 14.0055 9.65984 14.0055 9.09984V8.23984C14.0055 7.79318 13.6722 7.27984 13.2589 7.10651L9.53219 5.49984C9.47507 5.47052 9.42659 5.42681 9.39151 5.37304C9.35644 5.31926 9.33599 5.25727 9.33219 5.19318V3.19318C9.33219 2.56651 8.87219 1.82651 8.31219 1.53984C8.11219 1.43984 7.87885 1.43984 7.67885 1.53984C7.11885 1.82651 6.65885 2.57318 6.65885 3.19984V5.19984C6.65885 5.31984 6.56552 5.45984 6.45885 5.50651L2.73885 7.11318C2.32552 7.27984 1.99219 7.79318 1.99219 8.23984V9.09984C1.99219 9.65984 2.41219 9.93318 2.92552 9.71318L6.19885 8.29984C6.45219 8.18651 6.66552 8.32651 6.66552 8.60651V10.5065C6.66552 10.6598 6.57885 10.8732 6.47219 10.9798L4.95885 12.4998C4.79885 12.6598 4.72552 12.9665 4.79885 13.1865L5.09219 14.0732C5.21219 14.4598 5.65219 14.6465 6.01885 14.4598Z" stroke="#E08129" stroke-linecap="round" stroke-linejoin="round"/>
</svg>
